<?xml version="1.0" encoding="UTF-8" standalone="no"?><!DOCTYPE svg PUBLIC "-//W3C//DTD SVG 1.1//EN" "http://www.w3.org/Graphics/SVG/1.1/DTD/svg11.dtd"><svg width="100%" height="100%" viewBox="0 0 326 71" version="1.1" xmlns="http://www.w3.org/2000/svg" xmlns:xlink="http://www.w3.org/1999/xlink" xml:space="preserve" style="fill-rule:evenodd;clip-rule:evenodd;stroke-linejoin:round;stroke-miterlimit:1.41421;"><rect id="Plan.-de.-travail1" x="0" y="0" width="325.139" height="70.879" style="fill:none;"/><g id="Calque.-1"><path d="M114.113,35.576l0,-0.075c0,-7.634 5.754,-13.887 14.002,-13.887c5.063,0 8.094,1.688 10.587,4.143l-3.759,4.335c-2.072,-1.88 -4.182,-3.032 -6.867,-3.032c-4.526,0 -7.787,3.759 -7.787,8.363l0,0.078c0,4.601 3.184,8.437 7.787,8.437c3.069,0 4.949,-1.227 7.058,-3.145l3.76,3.798c-2.762,2.954 -5.831,4.795 -11.01,4.795c-7.902,0 -13.771,-6.099 -13.771,-13.81" style="fill:#d60b51;fill-rule:nonzero;"/><rect x="143.882" y="22.074" width="5.907" height="26.853" style="fill:#d60b51;"/><path d="M156.503,22.074l5.447,-0.001l12.582,16.533l0,-16.533l5.831,0l0,26.854l-5.025,0l-13.005,-17.071l0,17.071l-5.83,0l0,-26.853l0,0Z" style="fill:#d60b51;fill-rule:nonzero;"/><path d="M186.808,22.074l20.254,-0.001l0,5.256l-14.385,0l0,5.447l12.658,0l0,5.255l-12.658,0l0,5.639l14.577,0l0,5.256l-20.446,0l0,-26.853l0,0Z" style="fill:#d60b51;fill-rule:nonzero;"/><path d="M212.511,22.074l6.367,-0.001l7.059,11.354l7.058,-11.354l6.368,0l0,26.854l-5.87,0l0,-17.532l-7.556,11.471l-0.154,0l-7.48,-11.355l0,17.416l-5.792,0l0,-26.853l0,0Z" style="fill:#d60b51;fill-rule:nonzero;"/><path d="M261.229,37.686l-3.567,-8.708l-3.569,8.708l7.136,0Zm-6.215,-15.805l5.447,0l11.508,27.045l-6.176,-0.001l-2.455,-6.022l-11.354,0l-2.455,6.022l-6.023,0l11.508,-27.044Z" style="fill:#d60b51;fill-rule:nonzero;"/><path d="M282.02,27.406l0,16.188l4.564,0c4.834,0 8.095,-3.26 8.095,-8.017l0,-0.076c0,-4.758 -3.261,-8.096 -8.095,-8.096l-4.564,0l0,0.001Zm-5.907,-5.332l10.471,0c8.44,0 14.271,5.793 14.271,13.349l0,0.078c0,7.555 -5.831,13.425 -14.271,13.425l-10.471,0l0,-26.853l0,0Z" style="fill:#d60b51;fill-rule:nonzero;"/><path d="M303.887,45.012l3.491,-4.181c2.416,1.994 4.948,3.261 8.018,3.261c2.416,0 3.874,-0.959 3.874,-2.532l0,-0.077c0,-1.496 -0.921,-2.263 -5.409,-3.414c-5.409,-1.381 -8.9,-2.877 -8.9,-8.209l0,-0.077c0,-4.872 3.913,-8.094 9.399,-8.094c3.913,0 7.25,1.227 9.973,3.414l-3.068,4.45c-2.379,-1.649 -4.719,-2.646 -6.982,-2.646c-2.263,0 -3.453,1.035 -3.453,2.339l0,0.077c0,1.764 1.151,2.339 5.792,3.529c5.448,1.42 8.517,3.376 8.517,8.056l0,0.077c0,5.332 -4.066,8.324 -9.858,8.324c-4.067,0 -8.171,-1.42 -11.394,-4.297" style="fill:#d60b51;fill-rule:nonzero;"/><path d="M24.294,0.263c-2.335,0.06 -4.67,0.128 -7.005,0.207c-9.227,0.312 -16.613,7.745 -16.896,16.973c-0.04,1.291 -0.077,2.582 -0.112,3.873c-0.125,4.684 -0.217,9.367 -0.278,14.052l-0.003,0c0.001,0.023 0.001,0.048 0.002,0.071c-0.001,0.024 -0.001,0.048 -0.002,0.072l0.003,0c0.061,4.684 0.153,9.367 0.278,14.052c0.035,1.29 0.072,2.582 0.112,3.873c0.283,9.228 7.669,16.66 16.896,16.973c2.335,0.078 4.67,0.147 7.005,0.206c13.905,0.352 27.81,0.352 41.715,0c2.545,-0.064 5.09,-0.141 7.635,-0.228c0.534,-0.098 8.994,-2.104 13.521,-11.069c1.261,-2.757 2.134,-5.123 2.616,-9.266l-23.312,-11.695l-0.11,-0.064l0,11.795l-42.585,0l0,-14.577l0,-0.143l0,-14.577l42.585,0l0,11.795l0.11,-0.064l23.312,-11.695c-0.482,-4.144 -1.355,-6.51 -2.616,-9.266c-4.527,-8.965 -12.987,-10.972 -13.521,-11.069c-2.545,-0.088 -5.09,-0.164 -7.635,-0.229c-6.952,-0.175 -13.905,-0.263 -20.857,-0.263c-6.953,0 -13.905,0.088 -20.858,0.263l0,0Z" style="fill:url(#_Linear1);fill-rule:nonzero;"/></g><defs><linearGradient id="_Linear1" x1="0" y1="0" x2="1" y2="0" gradientUnits="userSpaceOnUse" gradientTransform="matrix(89.7804,0,0,89.7804,0.0008634,35.4393)"><stop offset="0" style="stop-color:#d60b51;stop-opacity:1"/><stop offset="1" style="stop-color:#e5332a;stop-opacity:1"/></linearGradient></defs></svg>